<?xml version="1.0" encoding="UTF-8"?>
<svg width="690px" height="272px" viewBox="0 0 690 272" version="1.1" xmlns="http://www.w3.org/2000/svg" xmlns:xlink="http://www.w3.org/1999/xlink">
    <!-- Generator: Sketch 62 (91390) - https://sketch.com -->
    <title>Group 15</title>
    <desc>Created with Sketch.</desc>
    <defs>
        <rect id="path-1" x="0" y="0" width="690" height="272"></rect>
        <rect id="path-3" x="0" y="0" width="690" height="272"></rect>
        <circle id="path-5" cx="76.5" cy="76.5" r="76.5"></circle>
        <rect id="path-7" x="0" y="0" width="153" height="153" rx="17"></rect>
        <circle id="path-9" cx="76.5" cy="76.5" r="76.5"></circle>
        <rect id="path-11" x="0" y="0" width="153" height="153" rx="17"></rect>
        <circle id="path-13" cx="76.5" cy="76.5" r="76.5"></circle>
        <rect id="path-15" x="0" y="0" width="153" height="153" rx="17"></rect>
    </defs>
    <g id="Design" stroke="none" stroke-width="1" fill="none" fill-rule="evenodd">
        <g id="리스트_01" transform="translate(-30.000000, -381.000000)">
            <g id="2" transform="translate(30.000000, 381.000000)">
                <g id="Group-15">
                    <mask id="mask-2" fill="white">
                        <use xlink:href="#path-1"></use>
                    </mask>
                    <use id="mar_20" fill="#FFFFFF" xlink:href="#path-1"></use>
                    <g id="Group" mask="url(#mask-2)">
                        <mask id="mask-4" fill="white">
                            <use xlink:href="#path-3"></use>
                        </mask>
                        <use id="mar_20" fill="#FFFFFF" xlink:href="#path-3"></use>
                        <g id="Group-14" mask="url(#mask-4)">
                            <g transform="translate(46.000000, 59.000000)">
                                <polygon id="Rectangle" fill-opacity="0.12" fill="#005CEF" fill-rule="evenodd" points="6 71 214 71 214 82 6 82"></polygon>
                                <path d="M33.97,20.8 L33.97,0.19 L30.88,0.19 L30.88,16.12 L25.57,16.12 L25.57,18.28 L30.88,18.28 L30.88,20.8 L33.97,20.8 Z M20.17,10.78 C24.13,10.78 26.86,8.89 26.86,6.01 C26.86,3.13 24.13,1.24 20.17,1.24 C16.18,1.24 13.45,3.13 13.45,6.01 C13.45,8.89 16.18,10.78 20.17,10.78 Z M20.17,8.5 C17.92,8.5 16.39,7.54 16.39,6.01 C16.39,4.48 17.92,3.52 20.17,3.52 C22.39,3.52 23.92,4.48 23.92,6.01 C23.92,7.54 22.39,8.5 20.17,8.5 Z M22.03,19.93 L22.03,14.71 C24.34,14.59 26.71,14.32 28.99,13.93 L28.75,11.71 C23.02,12.43 16.36,12.49 11.38,12.52 L11.77,15.04 C13.9,15.04 16.36,15.01 18.94,14.89 L18.94,19.93 L22.03,19.93 Z M34.6,26.8 L34.6,24.28 L18.13,24.28 L18.13,18.79 L15.04,18.79 L15.04,26.8 L34.6,26.8 Z M60.16,27.34 L60.16,13.69 L64.33,13.69 L64.33,11.11 L60.16,11.11 L60.16,0.22 L57.04,0.22 L57.04,27.34 L60.16,27.34 Z M54.85,6.91 L54.85,4.39 L48.52,4.39 L48.52,0.61 L45.43,0.61 L45.43,4.39 L38.98,4.39 L38.98,6.91 L54.85,6.91 Z M47.02,21.49 C50.89,21.49 53.74,18.88 53.74,15.16 C53.74,11.47 50.89,8.83 47.02,8.83 C43.12,8.83 40.3,11.47 40.3,15.16 C40.3,18.88 43.12,21.49 47.02,21.49 Z M47.02,18.94 C44.83,18.94 43.24,17.44 43.24,15.16 C43.24,12.88 44.83,11.38 47.02,11.38 C49.21,11.38 50.8,12.88 50.8,15.16 C50.8,17.44 49.21,18.94 47.02,18.94 Z M88.48,10.51 L88.48,7.99 L72.97,7.99 L72.97,1.18 L69.88,1.18 L69.88,10.51 L88.48,10.51 Z M91.3,16.24 L91.3,13.75 L66.7,13.75 L66.7,16.24 L91.3,16.24 Z M88.63,26.71 L88.63,24.22 L72.79,24.22 L72.79,18.73 L69.7,18.73 L69.7,26.71 L88.63,26.71 Z M103.42,16.18 C107.8,15.34 111.58,12.76 113.32,9.28 C115.09,12.73 118.9,15.25 123.37,16.09 L124.63,13.63 C119.26,12.79 114.94,9.13 114.94,5.05 L114.94,4.99 L123.55,4.99 L123.55,2.5 L103.09,2.5 L103.09,4.99 L111.7,4.99 L111.7,5.05 C111.7,9.13 107.41,12.88 102.13,13.72 L103.42,16.18 Z M125.62,23.98 L125.62,21.46 L114.91,21.46 L114.91,15.13 L111.79,15.13 L111.79,21.46 L101.08,21.46 L101.08,23.98 L125.62,23.98 Z M151.12,20.17 L151.12,0.22 L148.03,0.22 L148.03,8.35 L142.69,8.35 L142.69,10.9 L148.03,10.9 L148.03,20.17 L151.12,20.17 Z M130.36,17.26 C138.07,14.74 142.84,9.43 142.84,2.29 L130.42,2.29 L130.42,4.81 L139.51,4.81 C138.94,9.25 134.98,12.85 129.01,14.8 L130.36,17.26 Z M151.81,26.8 L151.81,24.28 L136.84,24.28 L136.84,18.16 L133.75,18.16 L133.75,26.8 L151.81,26.8 Z M178.57,27.34 L178.57,0.19 L175.45,0.19 L175.45,27.34 L178.57,27.34 Z M165.01,15.13 C169.24,15.13 172.39,12.46 172.39,8.62 C172.39,4.78 169.24,2.11 165.01,2.11 C160.78,2.11 157.66,4.78 157.66,8.62 C157.66,12.46 160.78,15.13 165.01,15.13 Z M165.01,12.49 C162.52,12.49 160.69,10.96 160.69,8.62 C160.69,6.25 162.52,4.75 165.01,4.75 C167.53,4.75 169.36,6.25 169.36,8.62 C169.36,10.96 167.53,12.49 165.01,12.49 Z M174.04,20.41 L173.83,18.16 C168.01,19.03 161.26,19.06 156.4,19.06 L156.79,21.61 C161.59,21.61 168.07,21.55 174.04,20.41 Z M33.85,63.96 L33.85,50.19 L30.76,50.19 L30.76,63.96 L33.85,63.96 Z M19.12,63.3 C23.23,63.3 26.26,60.78 26.26,57.21 C26.26,53.64 23.23,51.09 19.12,51.09 C15.04,51.09 12.04,53.64 12.04,57.21 C12.04,60.78 15.04,63.3 19.12,63.3 Z M19.12,60.78 C16.78,60.78 15.04,59.37 15.04,57.21 C15.04,55.05 16.78,53.64 19.12,53.64 C21.49,53.64 23.26,55.05 23.26,57.21 C23.26,59.37 21.49,60.78 19.12,60.78 Z M34.66,76.98 L34.66,74.55 L19.18,74.55 L19.18,72.15 L33.85,72.15 L33.85,65.19 L16.09,65.19 L16.09,67.62 L30.79,67.62 L30.79,69.87 L16.15,69.87 L16.15,76.98 L34.66,76.98 Z M51.37,59.97 C57.43,59.97 61.03,58.32 61.03,55.32 C61.03,52.29 57.43,50.64 51.37,50.64 C45.28,50.64 41.71,52.29 41.71,55.32 C41.71,58.32 45.28,59.97 51.37,59.97 Z M51.37,57.66 C47.17,57.66 44.92,56.85 44.92,55.32 C44.92,53.76 47.17,52.95 51.37,52.95 C55.57,52.95 57.82,53.76 57.82,55.32 C57.82,56.85 55.57,57.66 51.37,57.66 Z M63.64,64.02 L63.64,61.56 L39.1,61.56 L39.1,64.02 L63.64,64.02 Z M61.33,77.07 L61.33,74.7 L45.13,74.7 L45.13,72.45 L60.55,72.45 L60.55,65.97 L42.01,65.97 L42.01,68.31 L57.52,68.31 L57.52,70.26 L42.07,70.26 L42.07,77.07 L61.33,77.07 Z M94.63,66.06 L94.63,59.13 L98.47,59.13 L98.47,56.58 L94.63,56.58 L94.63,50.22 L91.54,50.22 L91.54,66.06 L94.63,66.06 Z M87.19,64.5 L87.19,51.72 L84.13,51.72 L84.13,55.56 L77.5,55.56 L77.5,51.72 L74.41,51.72 L74.41,64.5 L87.19,64.5 Z M84.13,62.04 L77.5,62.04 L77.5,57.99 L84.13,57.99 L84.13,62.04 Z M95.35,76.95 L95.35,74.49 L80.47,74.49 L80.47,69.87 L94.84,69.87 L94.84,67.41 L77.38,67.41 L77.38,76.95 L95.35,76.95 Z M122.05,77.34 L122.05,63.36 L126.28,63.36 L126.28,60.81 L122.05,60.81 L122.05,50.22 L118.96,50.22 L118.96,77.34 L122.05,77.34 Z M108.28,71.31 C112.33,71.31 115.24,67.62 115.24,61.77 C115.24,55.92 112.33,52.2 108.28,52.2 C104.23,52.2 101.32,55.92 101.32,61.77 C101.32,67.62 104.23,71.31 108.28,71.31 Z M108.28,68.55 C105.91,68.55 104.29,66 104.29,61.77 C104.29,57.54 105.91,54.99 108.28,54.99 C110.62,54.99 112.27,57.54 112.27,61.77 C112.27,66 110.62,68.55 108.28,68.55 Z M153.22,74.01 L153.22,71.46 L142.45,71.46 L142.45,66 L150.4,66 L150.4,52.02 L147.34,52.02 L147.34,56.58 L134.5,56.58 L134.5,52.02 L131.44,52.02 L131.44,66 L139.36,66 L139.36,71.46 L128.68,71.46 L128.68,74.01 L153.22,74.01 Z M147.34,63.51 L134.5,63.51 L134.5,59.07 L147.34,59.07 L147.34,63.51 Z M179.41,77.31 L179.41,50.22 L176.47,50.22 L176.47,77.31 L179.41,77.31 Z M173.86,76.05 L173.86,50.73 L170.95,50.73 L170.95,59.7 L166.96,59.7 L166.96,62.22 L170.95,62.22 L170.95,76.05 L173.86,76.05 Z M157.78,71.7 C160.39,70.11 162.16,67.26 163.12,63.93 C164.05,66.96 165.67,69.6 168.13,71.1 L169.87,68.7 C166.24,66.42 164.59,61.83 164.59,57.45 L164.59,52.71 L161.59,52.71 L161.59,57.6 C161.59,62.22 159.73,67.08 155.89,69.36 L157.78,71.7 Z M208.42,73.98 L208.42,71.46 L202.63,71.46 L202.63,64.41 C204.79,63.18 206.08,61.26 206.08,58.86 C206.08,54.54 201.88,51.78 196.12,51.78 C190.33,51.78 186.16,54.54 186.16,58.86 C186.16,61.26 187.45,63.21 189.61,64.41 L189.61,71.46 L183.88,71.46 L183.88,73.98 L208.42,73.98 Z M196.12,63.54 C192.01,63.54 189.16,61.74 189.16,58.86 C189.16,56.01 192.01,54.21 196.12,54.21 C200.2,54.21 203.05,56.01 203.05,58.86 C203.05,61.74 200.2,63.54 196.12,63.54 Z M199.54,71.46 L192.7,71.46 L192.7,65.58 C193.75,65.82 194.92,65.94 196.12,65.94 C197.32,65.94 198.49,65.82 199.54,65.55 L199.54,71.46 Z" id="원하는조건의일을받아보세요" fill="#333333" fill-rule="nonzero"></path>
                                <g id="Group-11" stroke-width="1" fill="none" fill-rule="evenodd" transform="translate(0.000000, 105.000000)">
                                    <rect id="Rectangle" fill="#005CEF" x="0" y="0" width="280" height="62" rx="27.5"></rect>
                                    <g id="Group-13" transform="translate(30.000000, 12.000000)">
                                        <path d="M22.568,20.562 L22.568,18.43 L13.286,18.43 L13.286,16.506 L20.072,16.506 L20.072,14.374 L6.708,14.374 L6.708,11.514 L19.838,11.514 L19.838,9.356 L4.056,9.356 L4.056,16.506 L10.582,16.506 L10.582,18.43 L1.274,18.43 L1.274,20.562 L22.568,20.562 Z M20.566,31.768 L20.566,29.714 L6.526,29.714 L6.526,27.816 L19.89,27.816 L19.89,22.2 L3.822,22.2 L3.822,24.202 L17.264,24.202 L17.264,25.918 L3.874,25.918 L3.874,31.768 L20.566,31.768 Z M46.488,22.2 L46.488,20.042 L37.18,20.042 L37.18,17.806 L43.732,17.806 L43.732,9.044 L41.08,9.044 L41.08,11.358 L30.628,11.358 L30.628,9.044 L27.976,9.044 L27.976,17.806 L34.476,17.806 L34.476,20.042 L25.194,20.042 L25.194,22.2 L46.488,22.2 Z M41.08,15.674 L30.628,15.674 L30.628,13.412 L41.08,13.412 L41.08,15.674 Z M43.888,31.716 L43.888,24.046 L27.768,24.046 L27.768,31.716 L43.888,31.716 Z M41.262,29.584 L30.42,29.584 L30.42,26.178 L41.262,26.178 L41.262,29.584 Z M68.484,32.002 L68.484,8.498 L65.78,8.498 L65.78,32.002 L68.484,32.002 Z M63.96,13.412 L63.96,11.254 L58.214,11.254 L58.214,8.55 L55.536,8.55 L55.536,11.254 L49.764,11.254 L49.764,13.412 L63.96,13.412 Z M64.636,26.828 L64.454,24.878 C62.452,25.164 60.32,25.294 58.214,25.424 L58.214,23.214 C60.866,22.798 62.608,21.212 62.608,18.924 C62.608,16.298 60.268,14.556 56.888,14.556 C53.482,14.556 51.142,16.298 51.142,18.924 C51.142,21.186 52.884,22.798 55.536,23.214 L55.536,25.502 C53.326,25.58 51.168,25.58 49.296,25.58 L49.634,27.79 C53.898,27.79 59.462,27.712 64.636,26.828 Z M56.888,21.264 C54.99,21.264 53.69,20.38 53.69,18.924 C53.69,17.494 54.99,16.61 56.888,16.61 C58.76,16.61 60.06,17.494 60.06,18.924 C60.06,20.38 58.76,21.264 56.888,21.264 Z M92.534,26.36 L92.534,8.498 L89.856,8.498 L89.856,22.304 L85.254,22.304 L85.254,24.176 L89.856,24.176 L89.856,26.36 L92.534,26.36 Z M80.574,17.676 C84.006,17.676 86.372,16.038 86.372,13.542 C86.372,11.046 84.006,9.408 80.574,9.408 C77.116,9.408 74.75,11.046 74.75,13.542 C74.75,16.038 77.116,17.676 80.574,17.676 Z M80.574,15.7 C78.624,15.7 77.298,14.868 77.298,13.542 C77.298,12.216 78.624,11.384 80.574,11.384 C82.498,11.384 83.824,12.216 83.824,13.542 C83.824,14.868 82.498,15.7 80.574,15.7 Z M82.186,25.606 L82.186,21.082 C84.188,20.978 86.242,20.744 88.218,20.406 L88.01,18.482 C83.044,19.106 77.272,19.158 72.956,19.184 L73.294,21.368 C75.14,21.368 77.272,21.342 79.508,21.238 L79.508,25.606 L82.186,25.606 Z M93.08,31.56 L93.08,29.376 L78.806,29.376 L78.806,24.618 L76.128,24.618 L76.128,31.56 L93.08,31.56 Z M122.174,32.002 L122.174,8.524 L119.47,8.524 L119.47,32.002 L122.174,32.002 Z M104.286,27.53 C107.042,26.204 109.148,23.422 110.188,20.146 C111.28,23.188 113.386,25.736 116.116,26.932 L117.598,24.826 C113.932,23.266 111.514,19.21 111.514,15.31 L111.514,13.074 L116.74,13.074 L116.74,10.864 L103.584,10.864 L103.584,13.074 L108.81,13.074 L108.81,15.31 C108.81,19.34 106.392,23.708 102.752,25.398 L104.286,27.53 Z M146.224,26.36 L146.224,8.498 L143.546,8.498 L143.546,22.304 L138.944,22.304 L138.944,24.176 L143.546,24.176 L143.546,26.36 L146.224,26.36 Z M134.264,17.676 C137.696,17.676 140.062,16.038 140.062,13.542 C140.062,11.046 137.696,9.408 134.264,9.408 C130.806,9.408 128.44,11.046 128.44,13.542 C128.44,16.038 130.806,17.676 134.264,17.676 Z M134.264,15.7 C132.314,15.7 130.988,14.868 130.988,13.542 C130.988,12.216 132.314,11.384 134.264,11.384 C136.188,11.384 137.514,12.216 137.514,13.542 C137.514,14.868 136.188,15.7 134.264,15.7 Z M135.876,25.606 L135.876,21.082 C137.878,20.978 139.932,20.744 141.908,20.406 L141.7,18.482 C136.734,19.106 130.962,19.158 126.646,19.184 L126.984,21.368 C128.83,21.368 130.962,21.342 133.198,21.238 L133.198,25.606 L135.876,25.606 Z M146.77,31.56 L146.77,29.376 L132.496,29.376 L132.496,24.618 L129.818,24.618 L129.818,31.56 L146.77,31.56 Z M168.922,32.028 L168.922,20.198 L172.536,20.198 L172.536,17.962 L168.922,17.962 L168.922,8.524 L166.218,8.524 L166.218,32.028 L168.922,32.028 Z M164.32,14.322 L164.32,12.138 L158.834,12.138 L158.834,8.862 L156.156,8.862 L156.156,12.138 L150.566,12.138 L150.566,14.322 L164.32,14.322 Z M157.534,26.958 C160.888,26.958 163.358,24.696 163.358,21.472 C163.358,18.274 160.888,15.986 157.534,15.986 C154.154,15.986 151.71,18.274 151.71,21.472 C151.71,24.696 154.154,26.958 157.534,26.958 Z M157.534,24.748 C155.636,24.748 154.258,23.448 154.258,21.472 C154.258,19.496 155.636,18.196 157.534,18.196 C159.432,18.196 160.81,19.496 160.81,21.472 C160.81,23.448 159.432,24.748 157.534,24.748 Z M193.986,32.002 L193.986,8.524 L191.308,8.524 L191.308,32.002 L193.986,32.002 Z M176.202,27.816 C184.262,23.916 187.07,17.988 187.07,10.994 L175.942,10.994 L175.942,13.178 L184.314,13.178 C183.846,18.586 180.934,22.72 174.772,25.684 L176.202,27.816 Z" id="돌봄회원지원하기" fill="#FFFFFF" fill-rule="nonzero"></path>
                                        <polyline id="Path-2" stroke="#FFFFFF" stroke-width="2.27272727" stroke-linecap="round" stroke-linejoin="round" points="210 11 221 21 210 31"></polyline>
                                    </g>
                                </g>
                            </g>
                        </g>
                        <g id="Oval-2" mask="url(#mask-4)">
                            <g transform="translate(395.000000, -130.000000)">
                                <g id="Group-3" transform="translate(0.000000, 98.000000)">
                                    <mask id="mask-6" fill="white">
                                        <use xlink:href="#path-5"></use>
                                    </mask>
                                    <use id="Oval-Copy-3" fill="#F2F9EB" xlink:href="#path-5"></use>
                                    <g id="avatar/square" mask="url(#mask-6)">
                                        <g id="avatar-square">
                                            <mask id="mask-8" fill="white">
                                                <use xlink:href="#path-7"></use>
                                            </mask>
                                            <use id="background-square" fill-opacity="0" fill="#FFFFFF" xlink:href="#path-7"></use>
                                            <g id="body/yellow" mask="url(#mask-8)">
                                                <g transform="translate(8.500255, 29.750127)" id="body/dark-brown">
                                                    <g transform="translate(0.000000, 0.000000)">
                                                        <path d="M123.659275,105.499875 C119.149175,98.9757 112.50005,94.23355 104.8628,92.0941 L87.124575,87.125 L87.124575,74.375425 C94.623275,68.742475 99.54775,59.87825 99.85035,49.851225 C100.8984,50.3132 102.05525,50.575 103.275,50.575 C107.969125,50.575 111.775,46.76955 111.775,42.075 C111.775,37.38045 107.969125,33.575 103.275,33.575 C102.065025,33.575 100.916675,33.831275 99.875,34.286875 L99.875,31.875 C99.875,14.27065 85.603925,0 68,0 L67.999575,0 C50.39565,0 36.125,14.27065 36.125,31.875 L36.125,34.286875 C35.0829,33.831275 33.93455,33.575 32.725,33.575 C28.03045,33.575 24.225,37.38045 24.225,42.075 C24.225,46.76955 28.03045,50.575 32.725,50.575 C33.944325,50.575 35.101175,50.313625 36.14965,49.851225 C36.451825,59.87825 41.3763,68.742475 48.874575,74.375425 L48.874575,87.125 L31.136775,92.0941 C23.499525,94.23355 16.8504,98.9757 12.3403,105.499875 L2.4158453e-14,123.352 L2.4158453e-14,136 L136,136 L136,123.352 L123.659275,105.499875 Z" id="Fill-1" fill="#FFCF83"></path>
                                                        <path d="M67.9996175,80.74983 C64.0692175,80.74983 60.3071175,80.03413 56.8306175,78.733205 C61.7750675,81.891805 67.6468675,83.72483 73.9496175,83.72483 C78.6501175,83.72483 83.1079425,82.699305 87.1246175,80.87308 L87.1246175,74.375255 C81.7972425,78.377055 75.1757425,80.74983 67.9996175,80.74983 Z" id="Fill-4" fill="#F7A74F"></path>
                                                        <path d="M37.233655,43.3153625 C37.34203,42.9205375 37.400255,42.5044625 37.400255,42.0752125 C37.400255,39.4933375 35.30713,37.4002125 32.725255,37.4002125 C32.07968,37.4002125 31.464705,37.5311125 30.905405,37.7674125" id="Stroke-6" stroke="#00004D" stroke-width="0.85" stroke-linecap="round" stroke-linejoin="round"></path>
                                                        <path d="M98.7663025,43.3153625 C98.6579275,42.9205375 98.6001275,42.5044625 98.6001275,42.0752125 C98.6001275,39.4933375 100.693252,37.4002125 103.275127,37.4002125 C103.920277,37.4002125 104.535252,37.5311125 105.094977,37.7674125" id="Stroke-8" stroke="#00004D" stroke-width="0.85" stroke-linecap="round" stroke-linejoin="round"></path>
                                                    </g>
                                                </g>
                                            </g>
                                            <g id="mouth/default" mask="url(#mask-8)" fill="#FFFFFF">
                                                <g transform="translate(59.499873, 86.916504)" id="default">
                                                    <path d="M25.5000425,4.0373725 C25.5000425,8.7319225 21.6945925,12.5373725 17.0000425,12.5373725 C12.3054925,12.5373725 8.5000425,8.7319225 8.5000425,4.0373725 L25.5000425,4.0373725 Z"></path>
                                                </g>
                                            </g>
                                            <g id="eyes/default" mask="url(#mask-8)" fill="#00004D">
                                                <g transform="translate(55.250000, 64.599958)">
                                                    <path d="M38.6752125,8.5 C38.6752125,10.37765 37.1528625,11.9 35.2752125,11.9 C33.3975625,11.9 31.8752125,10.37765 31.8752125,8.5 C31.8752125,6.62235 33.3975625,5.1 35.2752125,5.1 C37.1528625,5.1 38.6752125,6.62235 38.6752125,8.5" id="eye-right"></path>
                                                    <path d="M10.625,8.5 C10.625,10.37765 9.10265,11.9 7.225,11.9 C5.34735,11.9 3.825,10.37765 3.825,8.5 C3.825,6.62235 5.34735,5.1 7.225,5.1 C9.10265,5.1 10.625,6.62235 10.625,8.5" id="eye-left"></path>
                                                </g>
                                            </g>
                                            <g id="nose/default" mask="url(#mask-8)" stroke="#00004D" stroke-linecap="round" stroke-linejoin="round" stroke-width="0.85">
                                                <g transform="translate(69.274873, 64.599958)" id="nose">
                                                    <polyline points="7.225 5.1 11.475 19.55 5.525 20.4"></polyline>
                                                </g>
                                            </g>
                                            <g id="head/hair/long/13" mask="url(#mask-8)" fill="#00004D">
                                                <path d="M111.775,63.3249575 C112.67345,63.3249575 113.53875,63.4669075 114.35135,63.7248825 C114.7092,63.0308575 114.917875,62.2463075 114.917875,61.4099075 C114.917875,59.5131325 113.8796,57.8615825 112.3428,56.9831075 C114.613575,55.6562575 116.14315,53.1993325 116.14315,50.3798825 C116.14315,46.5451075 113.318175,43.3780075 109.6381,42.8246575 C110.222475,41.7817075 110.559075,40.5806575 110.559075,39.3001325 C110.559075,35.3098075 107.323975,32.0751325 103.334075,32.0751325 C101.847425,32.0751325 100.4666,32.5252075 99.317825,33.2948825 C99.318675,33.2438825 99.32165,33.1937325 99.32165,33.1423075 C99.32165,27.9785575 95.1354,23.7923075 89.97165,23.7923075 C87.73275,23.7923075 85.6783,24.5806825 84.067975,25.8935075 C82.66165,23.1395075 79.804375,21.2499575 76.5,21.2499575 C73.195625,21.2499575 70.33835,23.1395075 68.932025,25.8935075 C67.3217,24.5806825 65.26725,23.7923075 63.02835,23.7923075 C57.8646,23.7923075 53.67835,27.9785575 53.67835,33.1423075 C53.67835,33.1937325 53.681325,33.2438825 53.682175,33.2948825 C52.5334,32.5252075 51.152575,32.0751325 49.665925,32.0751325 C45.676025,32.0751325 42.440925,35.3098075 42.440925,39.3001325 C42.440925,40.5806575 42.777525,41.7817075 43.3619,42.8246575 C39.681825,43.3780075 36.85685,46.5451075 36.85685,50.3798825 C36.85685,53.1993325 38.386425,55.6562575 40.6572,56.9831075 C39.1204,57.8615825 38.082125,59.5131325 38.082125,61.4099075 C38.082125,62.2458825 38.28995,63.0304325 38.6461,63.7257325 C39.459975,63.4669075 40.3257,63.3249575 41.225,63.3249575 C44.134975,63.3249575 46.701125,64.7890825 48.23325,67.0186325 C52.584825,65.3738825 55.8008,61.4171325 56.38135,56.6448075 C57.755375,57.3813325 59.3249,57.7999575 60.9926,57.7999575 C64.978675,57.7999575 68.405025,55.4127325 69.926525,51.9910575 C71.640125,53.6145575 73.952975,54.6124575 76.5,54.6124575 C79.047025,54.6124575 81.359875,53.6145575 83.073475,51.9910575 C84.594975,55.4127325 88.021325,57.7999575 92.0074,57.7999575 C93.6751,57.7999575 95.244625,57.3813325 96.61865,56.6448075 C97.1992,61.4171325 100.415175,65.3738825 104.76675,67.0186325 C106.298875,64.7890825 108.865025,63.3249575 111.775,63.3249575" id="long-13"></path>
                                            </g>
                                            <g id="clothing/t-shirt" mask="url(#mask-8)" fill="#80C43B">
                                                <g transform="translate(8.500000, 106.250000)" id="t-shirt">
                                                    <path d="M136,46.852 L123.659275,28.999875 C119.1496,22.476125 112.500475,17.73355 104.8628,15.5941 L87.125,10.625 C87.125,21.187525 78.562525,29.75 68,29.75 L68,29.75 C57.437475,29.75 48.875,21.187525 48.875,10.625 L31.136775,15.5941 C23.499525,17.73355 16.8504,22.476125 12.3403,28.999875 L0,46.852 L0,59.5 L136,59.5 L136,46.852 Z"></path>
                                                </g>
                                            </g>
                                            <g id="facial-hair/no-facial" mask="url(#mask-8)">
                                                <g transform="translate(38.250000, 77.538062)"></g>
                                            </g>
                                            <g id="accessories/glasses-01" mask="url(#mask-8)" stroke-linecap="round" stroke-linejoin="round">
                                                <g transform="translate(42.500255, 57.375000)" id="glasses-01">
                                                    <g transform="translate(9.350000, 7.225000)">
                                                        <path d="M49.3000425,9.7751275 C49.3000425,15.1734775 44.9233925,19.5501275 39.5250425,19.5501275 C34.1266925,19.5501275 29.7500425,15.1734775 29.7500425,9.7751275 C29.7500425,4.3763525 34.1266925,0.0001275 39.5250425,0.0001275 C44.9233925,0.0001275 49.3000425,4.3763525 49.3000425,9.7751275 Z" id="Stroke-1" stroke="#00004D" stroke-width="1.7"></path>
                                                        <path d="M4.25e-05,9.7751275 C4.25e-05,15.1734775 4.3762675,19.5501275 9.7750425,19.5501275 C15.1738175,19.5501275 19.5500425,15.1734775 19.5500425,9.7751275 C19.5500425,4.3763525 15.1738175,0.0001275 9.7750425,0.0001275 C4.3762675,0.0001275 4.25e-05,4.3763525 4.25e-05,9.7751275 Z" id="Stroke-3" stroke="#00004D" stroke-width="1.7"></path>
                                                        <path d="M18.94429,6.3826075 C19.673165,3.9210075 21.952015,2.1249575 24.649915,2.1249575 C27.34824,2.1249575 29.626665,3.9210075 30.355965,6.3826075" id="Stroke-5" stroke="#00004D" stroke-width="1.7"></path>
                                                    </g>
                                                </g>
                                            </g>
                                        </g>
                                    </g>
                                </g>
                                <g id="Group-2" transform="translate(173.000000, 173.000000)">
                                    <mask id="mask-10" fill="white">
                                        <use xlink:href="#path-9"></use>
                                    </mask>
                                    <use id="Oval" fill="#E9F2FE" xlink:href="#path-9"></use>
                                    <g id="avatar/square" mask="url(#mask-10)">
                                        <g id="avatar-square">
                                            <mask id="mask-12" fill="white">
                                                <use xlink:href="#path-11"></use>
                                            </mask>
                                            <use id="background-square" fill-opacity="0" fill="#FFFFFF" xlink:href="#path-11"></use>
                                            <g id="body/light" mask="url(#mask-12)">
                                                <g transform="translate(8.500255, 29.750127)" id="body/dark-brown">
                                                    <g transform="translate(0.000000, 0.000000)">
                                                        <path d="M123.659275,105.499875 C119.149175,98.9757 112.50005,94.23355 104.8628,92.0941 L87.124575,87.125 L87.124575,74.375425 C94.623275,68.742475 99.54775,59.87825 99.85035,49.851225 C100.8984,50.3132 102.05525,50.575 103.275,50.575 C107.969125,50.575 111.775,46.76955 111.775,42.075 C111.775,37.38045 107.969125,33.575 103.275,33.575 C102.065025,33.575 100.916675,33.831275 99.875,34.286875 L99.875,31.875 C99.875,14.27065 85.603925,0 68,0 L67.999575,0 C50.39565,0 36.125,14.27065 36.125,31.875 L36.125,34.286875 C35.0829,33.831275 33.93455,33.575 32.725,33.575 C28.03045,33.575 24.225,37.38045 24.225,42.075 C24.225,46.76955 28.03045,50.575 32.725,50.575 C33.944325,50.575 35.101175,50.313625 36.14965,49.851225 C36.451825,59.87825 41.3763,68.742475 48.874575,74.375425 L48.874575,87.125 L31.136775,92.0941 C23.499525,94.23355 16.8504,98.9757 12.3403,105.499875 L2.4158453e-14,123.352 L2.4158453e-14,136 L136,136 L136,123.352 L123.659275,105.499875 Z" id="Fill-1" fill="#E9ADA1"></path>
                                                        <path d="M67.9996175,80.74983 C64.0692175,80.74983 60.3071175,80.03413 56.8306175,78.733205 C61.7750675,81.891805 67.6468675,83.72483 73.9496175,83.72483 C78.6501175,83.72483 83.1079425,82.699305 87.1246175,80.87308 L87.1246175,74.375255 C81.7972425,78.377055 75.1757425,80.74983 67.9996175,80.74983 Z" id="Fill-4" fill="#DB8B79"></path>
                                                        <path d="M37.233655,43.3153625 C37.34203,42.9205375 37.400255,42.5044625 37.400255,42.0752125 C37.400255,39.4933375 35.30713,37.4002125 32.725255,37.4002125 C32.07968,37.4002125 31.464705,37.5311125 30.905405,37.7674125" id="Stroke-6" stroke="#00004D" stroke-width="0.85" stroke-linecap="round" stroke-linejoin="round"></path>
                                                        <path d="M98.7663025,43.3153625 C98.6579275,42.9205375 98.6001275,42.5044625 98.6001275,42.0752125 C98.6001275,39.4933375 100.693252,37.4002125 103.275127,37.4002125 C103.920277,37.4002125 104.535252,37.5311125 105.094977,37.7674125" id="Stroke-8" stroke="#00004D" stroke-width="0.85" stroke-linecap="round" stroke-linejoin="round"></path>
                                                    </g>
                                                </g>
                                            </g>
                                            <g id="mouth/default" mask="url(#mask-12)" fill="#FFFFFF">
                                                <g transform="translate(59.499873, 86.916504)" id="default">
                                                    <path d="M25.5000425,4.0373725 C25.5000425,8.7319225 21.6945925,12.5373725 17.0000425,12.5373725 C12.3054925,12.5373725 8.5000425,8.7319225 8.5000425,4.0373725 L25.5000425,4.0373725 Z"></path>
                                                </g>
                                            </g>
                                            <g id="eyes/default" mask="url(#mask-12)" fill="#00004D">
                                                <g transform="translate(55.250000, 64.599958)">
                                                    <path d="M38.6752125,8.5 C38.6752125,10.37765 37.1528625,11.9 35.2752125,11.9 C33.3975625,11.9 31.8752125,10.37765 31.8752125,8.5 C31.8752125,6.62235 33.3975625,5.1 35.2752125,5.1 C37.1528625,5.1 38.6752125,6.62235 38.6752125,8.5" id="eye-right"></path>
                                                    <path d="M10.625,8.5 C10.625,10.37765 9.10265,11.9 7.225,11.9 C5.34735,11.9 3.825,10.37765 3.825,8.5 C3.825,6.62235 5.34735,5.1 7.225,5.1 C9.10265,5.1 10.625,6.62235 10.625,8.5" id="eye-left"></path>
                                                </g>
                                            </g>
                                            <g id="nose/default" mask="url(#mask-12)" stroke="#00004D" stroke-linecap="round" stroke-linejoin="round" stroke-width="0.85">
                                                <g transform="translate(69.274873, 64.599958)" id="nose">
                                                    <polyline points="7.225 5.1 11.475 19.55 5.525 20.4"></polyline>
                                                </g>
                                            </g>
                                            <g id="head/hair/long/01" mask="url(#mask-12)" fill="#00004D">
                                                <path d="M108.349925,79.6011825 C109.3984,80.0635825 110.555675,80.3249575 111.775,80.3249575 C112.48815,80.3249575 113.176225,80.2276325 113.83795,80.0623075 L113.83795,80.0623075 L119,112.742257 L95.625,112.742257 L95.625,104.114332 C103.116475,98.4805325 108.04775,89.6252325 108.349925,79.6011825 Z M44.64965,79.60097 C44.951825,89.62502 49.883525,98.48032 57.375,104.114545 L57.375,104.114545 L57.375,112.74247 L34,112.74247 L39.16205,80.062095 C39.823775,80.227845 40.51185,80.324745 41.225,80.324745 C42.444325,80.324745 43.601175,80.06337 44.64965,79.60097 Z M76.499915,27.62483 C82.71129,27.62483 88.529115,29.298905 93.54029,32.20803 C98.416315,35.038955 102.52564,39.040755 105.476415,43.836455 C107.77354,47.57093 109.371115,51.78098 110.082565,56.28683 L110.082565,56.28683 L111.197765,63.346505 C108.94399,63.49908 106.93544,64.533105 105.50234,66.10263 C90.39954,64.93218 76.77234,58.502355 66.45334,48.637255 C62.030365,56.19418 55.334915,62.250855 47.310915,65.89778 C45.89269,64.44173 43.956815,63.49993 41.80079,63.355005 L41.80079,63.355005 L42.917265,56.28683 C43.628715,51.78098 45.22629,47.57093 47.523415,43.836455 C49.645015,40.388855 52.367565,37.354355 55.54104,34.867255 C56.781615,33.894855 58.08934,33.004055 59.45954,32.20803 C63.30664,29.97508 67.630165,28.47313 72.241415,27.89428 C73.636265,27.71918 75.05704,27.62483 76.499915,27.62483 Z" id="long-01"></path>
                                            </g>
                                            <g id="clothing/t-shirt" mask="url(#mask-12)" fill="#2384F5">
                                                <g transform="translate(8.500000, 106.250000)" id="t-shirt">
                                                    <path d="M136,46.852 L123.659275,28.999875 C119.1496,22.476125 112.500475,17.73355 104.8628,15.5941 L87.125,10.625 C87.125,21.187525 78.562525,29.75 68,29.75 L68,29.75 C57.437475,29.75 48.875,21.187525 48.875,10.625 L31.136775,15.5941 C23.499525,17.73355 16.8504,22.476125 12.3403,28.999875 L0,46.852 L0,59.5 L136,59.5 L136,46.852 Z"></path>
                                                </g>
                                            </g>
                                            <g id="facial-hair/no-facial" mask="url(#mask-12)">
                                                <g transform="translate(38.250000, 77.538062)"></g>
                                            </g>
                                            <g id="accessories/no-accessory" mask="url(#mask-12)">
                                                <g transform="translate(42.500255, 57.375000)"></g>
                                            </g>
                                        </g>
                                    </g>
                                </g>
                                <g id="Group-4" transform="translate(30.000000, 271.000000)">
                                    <mask id="mask-14" fill="white">
                                        <use xlink:href="#path-13"></use>
                                    </mask>
                                    <use id="Oval-Copy" fill="#FEEAED" xlink:href="#path-13"></use>
                                    <g id="avatar/square" mask="url(#mask-14)">
                                        <g id="avatar-square">
                                            <mask id="mask-16" fill="white">
                                                <use xlink:href="#path-15"></use>
                                            </mask>
                                            <use id="background-square" fill-opacity="0" fill="#FFFFFF" xlink:href="#path-15"></use>
                                            <g id="body/yellow" mask="url(#mask-16)">
                                                <g transform="translate(8.500255, 29.750127)" id="body/dark-brown">
                                                    <g transform="translate(0.000000, 0.000000)">
                                                        <path d="M123.659275,105.499875 C119.149175,98.9757 112.50005,94.23355 104.8628,92.0941 L87.124575,87.125 L87.124575,74.375425 C94.623275,68.742475 99.54775,59.87825 99.85035,49.851225 C100.8984,50.3132 102.05525,50.575 103.275,50.575 C107.969125,50.575 111.775,46.76955 111.775,42.075 C111.775,37.38045 107.969125,33.575 103.275,33.575 C102.065025,33.575 100.916675,33.831275 99.875,34.286875 L99.875,31.875 C99.875,14.27065 85.603925,0 68,0 L67.999575,0 C50.39565,0 36.125,14.27065 36.125,31.875 L36.125,34.286875 C35.0829,33.831275 33.93455,33.575 32.725,33.575 C28.03045,33.575 24.225,37.38045 24.225,42.075 C24.225,46.76955 28.03045,50.575 32.725,50.575 C33.944325,50.575 35.101175,50.313625 36.14965,49.851225 C36.451825,59.87825 41.3763,68.742475 48.874575,74.375425 L48.874575,87.125 L31.136775,92.0941 C23.499525,94.23355 16.8504,98.9757 12.3403,105.499875 L2.4158453e-14,123.352 L2.4158453e-14,136 L136,136 L136,123.352 L123.659275,105.499875 Z" id="Fill-1" fill="#FFCF83"></path>
                                                        <path d="M67.9996175,80.74983 C64.0692175,80.74983 60.3071175,80.03413 56.8306175,78.733205 C61.7750675,81.891805 67.6468675,83.72483 73.9496175,83.72483 C78.6501175,83.72483 83.1079425,82.699305 87.1246175,80.87308 L87.1246175,74.375255 C81.7972425,78.377055 75.1757425,80.74983 67.9996175,80.74983 Z" id="Fill-4" fill="#F7A74F"></path>
                                                        <path d="M37.233655,43.3153625 C37.34203,42.9205375 37.400255,42.5044625 37.400255,42.0752125 C37.400255,39.4933375 35.30713,37.4002125 32.725255,37.4002125 C32.07968,37.4002125 31.464705,37.5311125 30.905405,37.7674125" id="Stroke-6" stroke="#00004D" stroke-width="0.85" stroke-linecap="round" stroke-linejoin="round"></path>
                                                        <path d="M98.7663025,43.3153625 C98.6579275,42.9205375 98.6001275,42.5044625 98.6001275,42.0752125 C98.6001275,39.4933375 100.693252,37.4002125 103.275127,37.4002125 C103.920277,37.4002125 104.535252,37.5311125 105.094977,37.7674125" id="Stroke-8" stroke="#00004D" stroke-width="0.85" stroke-linecap="round" stroke-linejoin="round"></path>
                                                    </g>
                                                </g>
                                            </g>
                                            <g id="mouth/default" mask="url(#mask-16)" fill="#FFFFFF">
                                                <g transform="translate(59.499873, 86.916504)" id="default">
                                                    <path d="M25.5000425,4.0373725 C25.5000425,8.7319225 21.6945925,12.5373725 17.0000425,12.5373725 C12.3054925,12.5373725 8.5000425,8.7319225 8.5000425,4.0373725 L25.5000425,4.0373725 Z"></path>
                                                </g>
                                            </g>
                                            <g id="eyes/default" mask="url(#mask-16)" fill="#00004D">
                                                <g transform="translate(55.250000, 64.599958)">
                                                    <path d="M38.6752125,8.5 C38.6752125,10.37765 37.1528625,11.9 35.2752125,11.9 C33.3975625,11.9 31.8752125,10.37765 31.8752125,8.5 C31.8752125,6.62235 33.3975625,5.1 35.2752125,5.1 C37.1528625,5.1 38.6752125,6.62235 38.6752125,8.5" id="eye-right"></path>
                                                    <path d="M10.625,8.5 C10.625,10.37765 9.10265,11.9 7.225,11.9 C5.34735,11.9 3.825,10.37765 3.825,8.5 C3.825,6.62235 5.34735,5.1 7.225,5.1 C9.10265,5.1 10.625,6.62235 10.625,8.5" id="eye-left"></path>
                                                </g>
                                            </g>
                                            <g id="nose/default" mask="url(#mask-16)" stroke="#00004D" stroke-linecap="round" stroke-linejoin="round" stroke-width="0.85">
                                                <g transform="translate(69.274873, 64.599958)" id="nose">
                                                    <polyline points="7.225 5.1 11.475 19.55 5.525 20.4"></polyline>
                                                </g>
                                            </g>
                                            <g id="head/hair/short/01" mask="url(#mask-16)" fill="#00004D">
                                                <path d="M110.5,63.4307825 L110.5,61.6249575 C110.5,55.1029075 108.660175,49.0118075 105.4765,43.8365825 C102.525725,39.0404575 98.415975,35.0386575 93.540375,32.2081575 C88.5292,29.2986075 82.711375,27.6249575 76.5,27.6249575 C70.2882,27.6249575 64.4708,29.2986075 59.459625,32.2081575 C54.584025,35.0386575 50.474275,39.0404575 47.5235,43.8365825 C44.339825,49.0118075 42.5,55.1029075 42.5,61.6249575 L42.5,63.4307825 C44.2731,63.6985325 45.865575,64.5081575 47.1019,65.6930575 C51.01785,61.7626575 54.17135,57.0732075 56.31675,51.8597325 C62.32115,55.1063075 69.1951,56.9499575 76.5,56.9499575 C83.8049,56.9499575 90.67885,55.1063075 96.68325,51.8597325 C98.828225,57.0732075 101.982575,61.7626575 105.8981,65.6930575 C107.134425,64.5081575 108.7269,63.6985325 110.5,63.4307825" id="short-01"></path>
                                            </g>
                                            <g id="clothing/t-shirt" mask="url(#mask-16)" fill="#FB344F">
                                                <g transform="translate(8.500000, 106.250000)" id="t-shirt">
                                                    <path d="M136,46.852 L123.659275,28.999875 C119.1496,22.476125 112.500475,17.73355 104.8628,15.5941 L87.125,10.625 C87.125,21.187525 78.562525,29.75 68,29.75 L68,29.75 C57.437475,29.75 48.875,21.187525 48.875,10.625 L31.136775,15.5941 C23.499525,17.73355 16.8504,22.476125 12.3403,28.999875 L0,46.852 L0,59.5 L136,59.5 L136,46.852 Z"></path>
                                                </g>
                                            </g>
                                            <g id="facial-hair/no-facial" mask="url(#mask-16)">
                                                <g transform="translate(38.250000, 77.538062)"></g>
                                            </g>
                                            <g id="accessories/no-accessory" mask="url(#mask-16)">
                                                <g transform="translate(42.500255, 57.375000)"></g>
                                            </g>
                                        </g>
                                    </g>
                                </g>
                            </g>
                        </g>
                    </g>
                </g>
            </g>
        </g>
    </g>
</svg>