<svg xmlns="http://www.w3.org/2000/svg" width="639" height="466" viewBox="0 0 639 466">
    <g fill="none" fill-rule="evenodd">
        <path fill="#CFE1FD" d="M442.308 78.608l33.342 44.85h-66.685z"/>
        <path fill="#BBD4FC" d="M332.46 78.608h110.825l-33.662 45.232H299.834z"/>
        <path fill="#C6DBFC" d="M299.834 123.6h109.85v290.132h-109.85z"/>
        <path fill="#CFE1FD" d="M408.965 122.953h66.556v290.133h-66.556z"/>
        <path fill="#ECF3FF" d="M455.395 356.315v36.2h-23.773v-36.2h23.773zm0-69.814v36.2h-23.773v-36.2h23.773zm0-69.815v36.2h-23.773v-36.2h23.773zm0-69.815v36.2h-23.773v-36.2h23.773z"/>
        <g>
            <path fill="#C6DBFC" d="M247.12 186.691h80.131v227.072H247.12z"/>
            <path fill="#CFE1FD" d="M327.226 186.419h51.973v227.344h-51.973z"/>
            <path fill="#CFE1FD" d="M352.967 151.525l26.457 35.166h-52.715z"/>
            <path fill="#BBD4FC" d="M272.96 151.525h80.106l-25.84 35.166H247.12z"/>
            <path fill="#ECF3FF" d="M364.436 347.524v36.2h-20.672v-36.2h20.672zm-49.614 0v36.2H294.15v-36.2h20.672zm-35.66 0v36.2h-20.673v-36.2h20.673zm85.274-66.712v36.2h-20.672v-36.2h20.672zm-49.614 0v36.2H294.15v-36.2h20.672zm-35.66 0v36.2h-20.673v-36.2h20.673zm85.274-66.195v36.2h-20.672v-36.2h20.672zm-49.614 0v36.2H294.15v-36.2h20.672zm-35.66 0v36.2h-20.673v-36.2h20.673z"/>
        </g>
        <g>
            <path fill="#BBD4FC" d="M194.014 417.35c1.449 0 3.85.377 4.898-1.59 1.398-2.625 0-8.21 0-12.73 0-7.91-1.517-14.321-4.898-14.321s-4.898 6.411-4.898 14.32c0 4.484-1.378 10.105 0 12.73 1.054 2.007 3.433 1.592 4.898 1.592z"/>
            <path fill="#D7E6FD" d="M194.963 397.86c7.02 0 14.824-1.69 19.85-10.97 6.702-12.379 8.454-19.142 8.454-40.462 0-21.32-8.796-20.396-10.042-26.37-1.09-5.218 6.492-12.804 5.211-19.094-1.858-9.128-2.87-18.424-5.211-22.277-2.815-4.63-8.216-6.693-11.113-9.547-3.54-3.487-3.054-6.365-7.149-6.365-6.702 0-12.409 6.212-17.35 14.917-4.94 8.706 1.75 11.672-.903 18.499-2.652 6.826-6 10.779-8.401 18.721-2.4 7.942 3.181 10.927 3.181 15.49 0 6.885-5.176 14.144-5.892 21.481-1.485 15.197 1.436 30.12 5.892 38.473 5.05 9.465 16.454 7.505 23.473 7.505z"/>
            <path fill="#CFE1FD" d="M194.8 397.86c6.943 0 14.824-1.69 19.849-10.97 6.702-12.379 8.618-19.597 8.618-40.917s-8.96-19.941-10.206-25.914c-1.09-5.22 6.492-12.805 5.212-19.095-1.859-9.128-2.87-18.424-5.212-22.277-2.814-4.63-8.215-6.693-11.113-9.547-3.54-3.487-3.054-6.365-7.148-6.365-4.363 0-8.546 1.732-6.847 5.612 4.37 9.986 12.558 6.634 17.576 23.263 5.017 16.628-9.443 22.484-7.754 31.533 1.688 9.049 8.52 21.597 9.304 29.466.493 4.942-.368 13.467-6.203 20.16-1.624 1.863-10.573 5.216-18.432 1.806-5.533-2.4-8.202-7.357-11.34-10.457-2.326-2.297-5.9-3.22-5.897-3.182.014.159.839 11.532 2.268 18.185.91 4.232 2.509 8.269 3.629 10.002 2.237 3.462 1.323 4.17 5.443 6.365 6.337 3.377 11.31 2.333 18.253 2.333z"/>
        </g>
        <g fill="#ECF3FF">
            <path d="M491.456 0c10.623 0 19.234 10.898 19.234 24.34 0 .582-.016 1.16-.048 1.732 13.712 1.41 22.646 4.283 22.843 8.03.336 6.414-4.43 9.582-12.583 12.027-6.712 2.012-15.78 2.12-26.146 2.194a15.392 15.392 0 0 1-6.333.057c-3.787.046-7.708.135-11.716.345-31.694 1.66-55.082-2.911-55.418-9.327-.211-4.03 8.728-7.83 23.265-10.51 2.207-6.272 10.886-10.953 21.256-10.953 2.426 0 4.759.256 6.938.729C474.768 7.959 482.378 0 491.456 0zM105.752 112.565c7.5 0 14.21 3.369 18.696 8.674 20.827 1.09 39.997 10.986 39.997 20.619 0 8.437-14.72 5.319-31.792 9.764-11.052 2.878-14.992 4.882-24.455 4.882-.485 0-.966-.003-1.444-.01-.332.007-.666.01-1.002.01-1.554 0-3.074-.08-4.547-.242-11.789-.808-21.189-3.437-29.69-4.64-10.595-1.5-12.95 0-19.564-7.323-6.615-7.323-3.875-13.535 2.445-17.088 6.621-3.721 17.078-2.591 30.33-2.705 4.264-7.151 12.085-11.941 21.026-11.941zM561.512 137.12c-3.889 0-7.356 1.797-9.605 4.602-10.208.672-19.473 5.47-19.473 10.142 0 4.162 3.669 6.02 15.896 4.817 3.862-.38 7.496 2.408 12.228 2.408.183 0 .366 0 .547-.003l.09.001.317.002c.614 0 1.218-.025 1.807-.075 6.241-.335 11.154-1.715 15.58-2.333 5.298-.74 6.475 0 9.783-3.613 3.307-3.613 1.937-6.677-1.223-8.43-3.327-1.845-8.592-1.273-15.266-1.336a12.285 12.285 0 0 0-10.68-6.183z"/>
        </g>
        <g>
            <g stroke="#669DF5" stroke-linecap="round" stroke-width="5.894">
                <path stroke-dasharray="8.840845259786954,20.6286354481523" d="M71.71 416.195h237.72"/>
                <path d="M329.076 416.195h237.72"/>
            </g>
            <path fill="#669DF5" d="M583.987 408.643c36.346-32.887 54.518-58.626 54.518-77.214 0-27.883-24.408-50.487-54.518-50.487s-54.519 22.604-54.519 50.487c0 18.588 18.173 44.327 54.519 77.214z"/>
            <path fill="#FFF" d="M584.051 304.491c.13 0 .257.03.373.086l10.41 5.021a.859.859 0 0 1 0 1.547l-8.989 4.334v3.75h8.14a6.814 6.814 0 0 1 6.815 6.814v8.951l9.313 5.046a5.11 5.11 0 0 1 2.67 4.26l.006.234v10.483c0 1.35-1.05 2.454-2.379 2.54l-.167.006h-20v-8.502a3.4 3.4 0 0 0-3.213-3.396l-.187-.005h-2.04a3.4 3.4 0 0 0-3.395 3.215l-.005.186v8.502h-19.558a2.546 2.546 0 0 1-2.546-2.546v-10.339a5.11 5.11 0 0 1 2.63-4.467l8.848-4.916.001-9.252a6.814 6.814 0 0 1 6.814-6.814h5.6V305.35c0-.474.385-.859.859-.859zm1.738 22.405c-2.438 0-4.415 1.907-4.415 4.26 0 2.352 1.977 4.259 4.415 4.259 2.438 0 4.415-1.907 4.415-4.26 0-2.352-1.977-4.259-4.415-4.259z"/>
            <g transform="translate(223.968 367.386)">
                <rect width="190.569" height="98.232" fill="#669DF5" rx="49.116"/>
                <path fill="#FFF" d="M70.598 22.593c2.637 2.093 3.956 4.13 3.96 6.11.001.961-.426 2.587-1.281 4.877 5.26 4.25 8.662 10.71 8.795 17.97l.195-.004c2.85 0 5.16 2.54 5.16 5.672 0 3.133-2.31 5.673-5.16 5.673a4.776 4.776 0 0 1-2.493-.705C75.97 70.143 67.85 75.638 58.448 75.638c-9.402 0-17.522-5.495-21.326-13.452-.74.449-1.59.705-2.494.705-2.849 0-5.159-2.54-5.159-5.673s2.31-5.672 5.16-5.672c.065 0 .13 0 .195.004.235-12.856 10.722-23.205 23.624-23.205.577 0 1.15.02 1.716.061 2.173-.122 5.79-1.177 7.391-1.973 1.769-.878 2.783-2.158 3.043-3.84zM48.455 50.27a3.688 3.688 0 0 0-3.685 3.69c0 2.038 1.65 3.69 3.685 3.69a3.688 3.688 0 0 0 3.685-3.69c0-2.038-1.65-3.69-3.685-3.69zm19.937 0a3.688 3.688 0 0 0-3.685 3.69c0 2.038 1.65 3.69 3.685 3.69a3.688 3.688 0 0 0 3.685-3.69c0-2.038-1.65-3.69-3.685-3.69zM146.15 24.854l.533.215A23.12 23.12 0 0 1 161.1 46.487v16.185h-10.407c-2.278 7.5-7.61 12.688-16.407 12.688-8.798 0-14.13-5.188-16.408-12.688h-10.806v-17.07a22.22 22.22 0 0 1 13.356-20.374l.376-.16c9.483-3.92 15.28-4.214 25.346-.214zm-20.06 26.148a3.458 3.458 0 1 0 0 6.915 3.458 3.458 0 0 0 0-6.915zm16.424 0a3.458 3.458 0 1 0 0 6.915 3.458 3.458 0 0 0 0-6.915z"/>
                <path stroke="#669DF5" stroke-width="3.002" d="M134.286 75.36c12.165 0 17.704-9.92 17.704-22.158v-5.14a.432.432 0 0 0-.524-.422c-2.838.614-5.51.574-8.018-.12-2.288-.634-5.342-3.795-9.162-9.485-4.036 5.51-7.14 8.672-9.316 9.484-1.383.517-4.018.538-7.904.062a.432.432 0 0 0-.485.429v5.192c0 12.238 5.54 22.158 17.705 22.158z"/>
            </g>
            <g>
                <path fill="#669DF5" d="M52.063 408.643c34.708-32.887 52.063-58.626 52.063-77.214 0-27.883-23.31-50.487-52.063-50.487C23.309 280.942 0 303.546 0 331.43c0 18.588 17.354 44.327 52.063 77.214z"/>
                <path fill="#FFF" d="M54.823 305.07l20.825 16.617c.615.49.973 1.234.973 2.02v31.271a2.585 2.585 0 0 1-2.585 2.585H47.874V344.66a3.452 3.452 0 0 0-3.263-3.447l-.19-.005h-1.806a3.452 3.452 0 0 0-3.447 3.263l-.005.19v12.901l-6.126.001a2.585 2.585 0 0 1-2.585-2.585v-31.294c0-.773.346-1.505.943-1.996l20.174-16.594a2.585 2.585 0 0 1 3.254-.024zm-.416 33.071v4.733c0 .902.693 1.642 1.575 1.717l.149.006h4.81l-.001-6.456h-6.533zm15.68 0h-6.533v6.456h4.81c.902 0 1.642-.692 1.717-1.574l.006-.15v-4.732zm-1.723-9.038h-4.81v6.455h6.533v-4.732c0-.952-.771-1.723-1.723-1.723zm-13.957 6.456h6.533v-6.456h-4.81c-.901 0-1.64.692-1.716 1.575l-.007.148v4.733z"/>
            </g>
        </g>
    </g>
</svg>
