<svg xmlns="http://www.w3.org/2000/svg" width="650" height="548" viewBox="0 0 650 548">
    <g fill="none" fill-rule="evenodd">
        <path fill="#CFE1FD" d="M472.083 94.144l39.932 53.715H432.15z"/>
        <path fill="#BBD4FC" d="M340.524 94.144h132.73l-40.316 54.173H301.45z"/>
        <path fill="#C6DBFC" d="M301.45 148.029H433.01v347.477H301.45z"/>
        <path fill="#CFE1FD" d="M432.15 147.255h79.71v347.477h-79.71z"/>
        <path fill="#ECF3FF" d="M487.757 426.741v43.355h-28.472v-43.355h28.472zm0-83.614v43.356h-28.472v-43.356h28.472zm0-83.613v43.355h-28.472v-43.355h28.472zm0-83.614v43.355h-28.472V175.9h28.472z"/>
        <g>
            <path fill="#C6DBFC" d="M238.316 223.59h95.97v271.953h-95.97z"/>
            <path fill="#CFE1FD" d="M334.255 223.264H396.5v272.279h-62.246z"/>
            <path fill="#CFE1FD" d="M365.083 181.474l31.687 42.117h-63.134z"/>
            <path fill="#BBD4FC" d="M269.264 181.474h95.939l-30.948 42.117h-95.94z"/>
            <path fill="#ECF3FF" d="M378.82 416.212v43.355H354.06v-43.355h24.759zm-59.42 0v43.355H294.64v-43.355h24.758zm-42.709 0v43.355h-24.758v-43.355h24.758zm102.129-79.898v43.356H354.06v-43.356h24.759zm-59.42 0v43.356H294.64v-43.356h24.758zm-42.709 0v43.356h-24.758v-43.356h24.758zm102.129-79.278v43.355H354.06v-43.355h24.759zm-59.42 0v43.355H294.64v-43.355h24.758zm-42.709 0v43.355h-24.758v-43.355h24.758z"/>
        </g>
        <g>
            <path fill="#BBD4FC" d="M167.655 499.84c1.735 0 4.61.45 5.865-1.906 1.675-3.143 0-9.832 0-15.246 0-9.472-1.816-17.151-5.865-17.151-4.05 0-5.866 7.679-5.866 17.151 0 5.37-1.65 12.101 0 15.246 1.262 2.404 4.112 1.906 5.866 1.906z"/>
            <path fill="#D7E6FD" d="M168.792 476.498c8.407 0 17.754-2.025 23.772-13.14 8.027-14.824 10.126-22.925 10.126-48.459 0-25.534-10.534-24.427-12.028-31.58-1.304-6.252 7.776-15.337 6.242-22.87-2.226-10.932-3.436-22.065-6.242-26.68-3.37-5.545-9.839-8.015-13.309-11.434-4.24-4.176-3.658-7.623-8.561-7.623-8.027 0-14.862 7.44-20.779 17.866-5.916 10.426 2.096 13.98-1.082 22.155-3.177 8.175-7.187 12.91-10.062 22.421-2.875 9.512 3.81 13.087 3.81 18.552 0 8.245-6.199 16.939-7.057 25.727-1.778 18.2 1.72 36.074 7.058 46.077 6.047 11.335 19.705 8.988 28.112 8.988z"/>
            <path fill="#CFE1FD" d="M168.596 476.498c8.316 0 17.754-2.025 23.772-13.14 8.027-14.824 10.322-23.47 10.322-49.003 0-25.534-10.73-23.883-12.223-31.037-1.305-6.25 7.775-15.336 6.242-22.868-2.226-10.933-3.437-22.066-6.242-26.68-3.37-5.546-9.84-8.016-13.31-11.435-4.24-4.176-3.657-7.623-8.56-7.623-5.226 0-10.235 2.075-8.201 6.722 5.234 11.96 15.04 7.945 21.05 27.86 6.009 19.915-11.31 26.929-9.287 37.766 2.022 10.837 10.205 25.866 11.144 35.29.59 5.92-.441 16.129-7.43 24.145-1.945 2.231-12.663 6.247-22.075 2.163-6.626-2.875-9.823-8.812-13.581-12.524-2.787-2.751-7.066-3.856-7.062-3.811.015.19 1.004 13.811 2.716 21.78 1.089 5.068 3.004 9.902 4.346 11.978 2.679 4.146 1.584 4.994 6.519 7.623 7.59 4.045 13.545 2.794 21.86 2.794z"/>
        </g>
        <g fill="#ECF3FF">
            <path d="M530.945 0c12.722 0 23.036 13.051 23.036 29.151 0 .697-.02 1.389-.057 2.074 16.42 1.69 27.122 5.13 27.357 9.616.402 7.684-5.305 11.477-15.07 14.405-8.039 2.41-18.9 2.54-31.315 2.628a18.412 18.412 0 0 1-7.585.068c-4.535.055-9.23.161-14.03.413-37.958 1.99-65.969-3.486-66.372-11.17-.253-4.827 10.454-9.377 27.862-12.587 2.644-7.511 13.039-13.118 25.46-13.118 2.904 0 5.699.307 8.309.873C510.96 9.532 520.072 0 530.945 0zM69.007 134.813c8.982 0 17.019 4.035 22.392 10.389 24.943 1.305 47.901 13.157 47.901 24.694 0 10.105-17.63 6.37-38.075 11.694-13.237 3.447-17.955 5.848-29.289 5.848-.593 0-1.181-.005-1.765-.013a49.842 49.842 0 0 1-6.593-.275c-14.127-.969-25.39-4.118-35.575-5.56-12.689-1.795-15.51 0-23.431-8.77-7.922-8.771-4.641-16.21 2.929-20.465 7.929-4.457 20.452-3.105 36.322-3.24 5.107-8.564 14.475-14.302 25.184-14.302zM614.848 164.22c-4.658 0-8.81 2.154-11.504 5.514-12.225.804-23.321 6.55-23.321 12.145 0 4.985 4.393 7.212 19.038 5.77 4.624-.456 8.977 2.884 14.644 2.884.233 0 .464-.001.694-.004l.112.002.337.002c.737 0 1.462-.03 2.17-.09 7.473-.402 13.355-2.055 18.654-2.794 6.344-.886 7.754 0 11.715-4.327 3.961-4.327 2.32-7.997-1.464-10.096-3.985-2.21-10.29-1.525-18.282-1.6a14.715 14.715 0 0 0-12.793-7.405z"/>
        </g>
        <g>
            <g stroke="#005CEF" stroke-linecap="round" stroke-width="6">
                <path stroke-dasharray="9,21" d="M73 497.687h242"/>
                <path d="M335 497.687h242"/>
            </g>
            <path fill="#005CEF" d="M594.5 490c37-33.48 55.5-59.681 55.5-78.605C650 383.01 625.152 360 594.5 360S539 383.01 539 411.395c0 18.924 18.5 45.125 55.5 78.605z"/>
            <path fill="#FFF" d="M594.565 383.973c.132 0 .262.03.38.087l10.597 5.112a.874.874 0 0 1 0 1.574l-9.151 4.414v3.816h8.288a6.937 6.937 0 0 1 6.937 6.937l-.001 9.112 9.481 5.136a5.203 5.203 0 0 1 2.72 4.337l.005.238v10.672a2.592 2.592 0 0 1-2.428 2.587l-.164.005h-20.36v-8.655a3.462 3.462 0 0 0-3.271-3.457l-.19-.005h-2.077a3.462 3.462 0 0 0-3.457 3.272l-.005.19V438H571.96a2.592 2.592 0 0 1-2.592-2.592v-10.525c0-1.89 1.025-3.63 2.677-4.548l9.008-5.003v-9.419a6.937 6.937 0 0 1 6.937-6.937h5.7l.002-4.248v-9.88c0-.484.39-.875.873-.875zm1.77 22.808c-2.483 0-4.495 1.941-4.495 4.336 0 2.395 2.012 4.336 4.494 4.336 2.483 0 4.495-1.941 4.495-4.336 0-2.395-2.012-4.336-4.495-4.336z"/>
            <g transform="translate(228 448)">
                <rect width="194" height="100" fill="#005CEF" rx="50"/>
                <path fill="#FFF" d="M71.869 23c2.684 2.13 4.028 4.204 4.031 6.22.002.978-.433 2.633-1.304 4.965 5.354 4.324 8.818 10.901 8.954 18.292l.198-.004c2.9 0 5.252 2.586 5.252 5.775 0 3.19-2.351 5.775-5.252 5.775-.92 0-1.786-.26-2.538-.718C77.337 71.405 69.072 77 59.5 77c-9.572 0-17.837-5.595-21.71-13.695a4.861 4.861 0 0 1-2.538.718c-2.9 0-5.252-2.585-5.252-5.775 0-3.19 2.351-5.775 5.252-5.775.066 0 .133.002.199.005.24-13.088 10.915-23.623 24.049-23.623.587 0 1.17.021 1.746.063 2.211-.124 5.895-1.199 7.525-2.009 1.8-.894 2.833-2.197 3.098-3.909zM49.327 51.174a3.754 3.754 0 0 0-3.751 3.756 3.754 3.754 0 0 0 3.751 3.757 3.754 3.754 0 0 0 3.752-3.757 3.754 3.754 0 0 0-3.752-3.756zm20.296 0a3.754 3.754 0 0 0-3.751 3.756 3.754 3.754 0 0 0 3.751 3.757 3.754 3.754 0 0 0 3.752-3.757 3.754 3.754 0 0 0-3.752-3.756zM148.79 25.305l.534.215A23.536 23.536 0 0 1 164 47.324V63.8h-10.594c-2.319 7.635-7.747 12.917-16.703 12.917S122.32 71.435 120 63.8h-11V46.424a22.62 22.62 0 0 1 13.602-20.744l.377-.16c9.656-3.992 15.56-4.291 25.81-.215zM128.36 51.92a3.52 3.52 0 1 0 0 7.04 3.52 3.52 0 0 0 0-7.04zm16.72 0a3.52 3.52 0 1 0 0 7.04 3.52 3.52 0 0 0 0-7.04z"/>
                <path stroke="#005CEF" stroke-width="3.056" d="M136.703 76.717c12.384 0 18.023-10.099 18.023-22.557v-5.233a.44.44 0 0 0-.533-.43c-2.89.625-5.61.585-8.163-.122-2.329-.645-5.438-3.863-9.327-9.655-4.108 5.61-7.269 8.827-9.483 9.655-1.408.526-4.09.547-8.046.062a.44.44 0 0 0-.494.437v5.286c0 12.458 5.64 22.557 18.023 22.557z"/>
            </g>
            <g>
                <path fill="#005CEF" d="M53 490c35.333-33.48 53-59.681 53-78.605C106 383.01 82.271 360 53 360S0 383.01 0 411.395C0 430.32 17.667 456.52 53 490z"/>
                <path fill="#FFF" d="M55.81 384.562l21.2 16.916c.626.5.99 1.257.99 2.057v31.834A2.631 2.631 0 0 1 75.369 438l-26.634-.001v-13.134c0-1.876-1.47-3.41-3.32-3.51l-.194-.005h-1.839a3.515 3.515 0 0 0-3.509 3.322l-.005.193-.001 13.134-6.236.001A2.631 2.631 0 0 1 31 435.369V403.51c0-.787.352-1.532.96-2.032l20.537-16.893c.96-.79 2.342-.8 3.313-.024zm-.423 33.667v4.817c0 .92.709 1.676 1.61 1.749l.144.006h4.897l-.001-6.573h-6.65zm15.962 0l-6.651-.001v6.573h4.897c.92 0 1.675-.71 1.748-1.61l.006-.145v-4.817zm-1.754-9.201h-4.897v6.571h6.651v-4.817c0-.969-.785-1.754-1.754-1.754zM55.387 415.6l6.65-.001v-6.571h-4.896c-.92 0-1.675.708-1.748 1.61l-.006.144v4.818z"/>
            </g>
        </g>
    </g>
</svg>
