<svg xmlns="http://www.w3.org/2000/svg" width="44" height="44" viewBox="0 0 44 44">
    <g fill="none" fill-rule="evenodd" transform="translate(2 2)">
        <circle cx="20" cy="20" r="20" stroke="#333" stroke-width="3"/>
        <path fill="#333" fill-rule="nonzero" d="M21.916 25.403c.022-1.548.391-2.726 1.107-3.532l2.003-1.952c1.65-1.699 2.474-3.424 2.474-5.177 0-1.968-.61-3.5-1.831-4.597C24.448 9.048 22.747 8.5 20.565 8.5c-2.116 0-3.817.554-5.103 1.661-1.286 1.108-1.94 2.613-1.962 4.516h3.956c0-.892.285-1.599.854-2.12.57-.522 1.322-.783 2.255-.783.977 0 1.718.266 2.222.799.505.532.757 1.303.757 2.314 0 .764-.217 1.473-.651 2.13-.282.43-.952 1.152-2.01 2.168-1.059 1.017-1.767 1.95-2.125 2.799-.358.85-.537 1.99-.537 3.42h3.695zM20.174 32.5c.717 0 1.27-.199 1.66-.597.392-.398.587-.892.587-1.484 0-.613-.2-1.12-.602-1.524-.402-.403-.95-.605-1.645-.605-.683 0-1.226.197-1.627.589-.402.393-.603.906-.603 1.54 0 .592.193 1.086.578 1.484.385.398.936.597 1.652.597z"/>
    </g>
</svg>
