<?xml version="1.0" encoding="UTF-8"?>
<svg width="30px" height="30px" viewBox="0 0 30 30" version="1.1" xmlns="http://www.w3.org/2000/svg" xmlns:xlink="http://www.w3.org/1999/xlink">
    <!-- Generator: Sketch 55.2 (78181) - https://sketchapp.com -->
    <title>list_children</title>
    <desc>Created with Sketch.</desc>
    <defs>
        <rect id="path-1" x="0" y="0" width="690" height="272" rx="10"></rect>
        <filter x="-1.2%" y="-2.9%" width="102.9%" height="107.4%" filterUnits="objectBoundingBox" id="filter-2">
            <feOffset dx="2" dy="2" in="SourceAlpha" result="shadowOffsetOuter1"></feOffset>
            <feGaussianBlur stdDeviation="3" in="shadowOffsetOuter1" result="shadowBlurOuter1"></feGaussianBlur>
            <feColorMatrix values="0 0 0 0 0.933333333   0 0 0 0 0.933333333   0 0 0 0 0.933333333  0 0 0 1 0" type="matrix" in="shadowBlurOuter1"></feColorMatrix>
        </filter>
    </defs>
    <g id="Design" stroke="none" stroke-width="1" fill="none" fill-rule="evenodd">
        <g id="리스트_01" transform="translate(-60.000000, -489.000000)">
            <rect fill="#F5F5F5" x="0" y="0" width="750" height="1334"></rect>
            <g id="2" transform="translate(30.000000, 285.000000)">
                <g id="01-copy-2">
                    <g id="mar_20">
                        <use fill="black" fill-opacity="1" filter="url(#filter-2)" xlink:href="#path-1"></use>
                        <use fill="#FFFFFF" fill-rule="evenodd" xlink:href="#path-1"></use>
                    </g>
                    <g id="1" transform="translate(30.000000, 30.000000)" fill="#333333">
                        <g id="Group-12" transform="translate(0.000000, 165.000000)">
                            <g id="Group-2" transform="translate(0.000000, 5.000000)">
                                <g id="list_children" transform="translate(0.000000, 4.000000)">
                                    <path d="M18.522186,30 C19.8760967,28.9035488 20.9821186,27.516199 21.7438187,25.9338077 C22.1150995,26.158102 22.5421206,26.2857788 22.9964447,26.2857788 C24.4278511,26.2857788 25.5882353,25.0184001 25.5882353,23.4550093 C25.5882353,21.8916184 24.4278511,20.6242397 22.9964447,20.6242397 C22.9636233,20.6242397 22.9309443,20.624906 22.8984186,20.626227 C22.8315807,17.0033597 21.1222296,13.7794441 18.4793984,11.6592809 C18.9093583,10.5162029 19.1239316,9.70500786 19.1231181,9.2256958 C19.1214364,8.23727689 18.4583204,7.22086848 17.1337703,6.17647059 C17.0031454,7.01555237 16.4935693,7.6543373 15.605042,8.09282539 C14.8028912,8.4886867 12.9927401,9.0137324 11.8992673,9.07790699 C11.6120283,9.05722899 11.3219558,9.04671012 11.0294118,9.04671012 C6.02728973,9.04671012 1.74776893,12.1220646 7.22921722e-13,16.474423 L3.63797881e-12,7.5 C3.63747154e-12,3.35786438 3.35786438,-1.2728045e-16 7.5,0 L22.5,0 C26.6421356,-7.6089797e-16 30,3.35786438 30,7.5 L30,22.5 C30,26.6421356 26.6421356,30 22.5,30 L18.522186,30 Z M6.05029412,23.7849144 C5.00501401,23.7849144 4.15764706,22.9420987 4.15764706,21.9024327 C4.15764706,20.8627668 5.00501401,20.0199511 6.05029412,20.0199511 C7.09557422,20.0199511 7.94294118,20.8627668 7.94294118,21.9024327 C7.94294118,22.9420987 7.09557422,23.7849144 6.05029412,23.7849144 Z M16.0085294,23.7849144 C14.9632493,23.7849144 14.1158824,22.9420987 14.1158824,21.9024327 C14.1158824,20.8627668 14.9632493,20.0199511 16.0085294,20.0199511 C17.0538095,20.0199511 17.9011765,20.8627668 17.9011765,21.9024327 C17.9011765,22.9420987 17.0538095,23.7849144 16.0085294,23.7849144 Z"></path>
                                </g>
                            </g>
                        </g>
                    </g>
                </g>
            </g>
        </g>
    </g>
</svg>