<svg xmlns="http://www.w3.org/2000/svg" width="44" height="44" viewBox="0 0 44 44">
    <path fill="#005CEF" fill-rule="evenodd" d="M29.508 44c4.714-3.542 7.763-9.18 7.763-15.53 0-10.72-8.691-19.411-19.412-19.411C9.843 9.059 2.962 13.917 0 20.85V11C0 4.925 4.925 0 11 0h22c6.075 0 11 4.925 11 11v22c0 6.075-4.925 11-11 11h-3.492zm-5.544-4.9H22l-.006.002-2.732-9.878h-2.47l-2.732 9.878h-1.973l-2.732-9.878h-3.61v-2.33H8.71l-1.764-6.378 2.16-.738 1.97 7.117h3.996l1.968-7.117h.003v-.004h1.972v.005l1.968 7.116h3.997l1.968-7.117 2.16.738-1.764 6.379h2.968v2.33h-3.612l-2.732 9.877-.005-.002zm-6.526-12.205h1.181l-.59-2.136-.591 2.136zm-5.718 2.33l1.354 4.895 1.355-4.896H11.72zm9.908 0l1.354 4.895 1.354-4.896h-2.708z"/>
</svg>
