<svg xmlns="http://www.w3.org/2000/svg" width="300" height="331" viewBox="0 0 300 331">
    <g fill="none" fill-rule="evenodd">
        <path fill="#BBD4FC" d="M150 0c16.015 0 29.172 5.033 39.471 15.099L300 118.017v179.172H0V118.017L110.607 15.099C120.854 5.033 133.985 0 150 0z"/>
        <rect width="240" height="240" x="30" y="38" fill="#ECF3FF" rx="22.881"/>
        <path fill="#CFE1FD" d="M0 118.22l110.65 109.335h78.757L300 118.22v212.288H0z"/>
        <path fill="#C6DBFC" d="M150 212.492c16.015 0 29.172 5.032 39.471 15.098L300 330.508H0L110.607 227.59c10.247-10.066 23.378-15.098 39.393-15.098z"/>
        <path fill="#005CEF" fill-rule="nonzero" d="M147.835 173c6.793 0 12.907-1.444 18.681-4.67l-2.802-6.965c-4.076 2.293-9.68 3.907-14.86 3.907-15.455 0-28.362-9.512-28.362-28.45 0-21.911 16.388-36.094 33.032-36.094 18.512 0 26.409 11.975 26.409 26.327 0 11.04-6.03 18.004-11.888 18.004-4.586 0-6.114-2.887-4.586-9.087l4.161-20.721h-7.727l-1.359 3.991h-.17c-1.613-3.312-4.16-4.756-7.387-4.756-11.04 0-19.192 11.975-19.192 23.27 0 8.832 5.095 14.267 12.398 14.267 3.991 0 8.832-2.632 11.634-6.454h.17c.934 4.756 5.35 7.304 10.784 7.304 9.765 0 21.229-8.833 21.229-26.242C188 106.843 175.008 93 154.543 93 131.531 93 112 110.58 112 137.161 112 161.195 128.644 173 147.835 173zm-1.02-28.875c-3.311 0-5.604-2.293-5.604-7.049 0-6.2 3.906-14.437 10.105-14.437 2.123 0 3.737 1.02 5.01 3.142l-2.462 13.588c-2.718 3.397-4.84 4.756-7.048 4.756z"/>
    </g>
</svg>
