<svg xmlns="http://www.w3.org/2000/svg" width="400" height="170" viewBox="0 0 400 170">
    <path fill="#333" fill-rule="nonzero" d="M30.216 99.655c8.219 0 14.645 1.852 19.278 5.556 4.633 3.704 6.95 8.938 6.95 15.702 0 4.896-.976 8.954-2.928 12.175-1.951 3.221-5.006 5.83-9.163 7.827l14.47 28.36V170H40.927l-12.233-24.833h-9.044V170H2.94V99.655h27.275zm200.043 0v.002l.293.003c5.457.092 10.34 1.47 14.65 4.133 4.463 2.759 7.934 6.685 10.411 11.78 2.478 5.093 3.733 10.932 3.763 17.515v3.15c0 6.677-1.215 12.586-3.647 17.728-2.432 5.14-5.887 9.098-10.366 11.873-4.426 2.741-9.46 4.128-15.104 4.16l-130 .001v-.002l-.498-.003c-5.485-.089-10.367-1.428-14.647-4.015-4.432-2.68-7.887-6.513-10.365-11.497-2.478-4.985-3.779-10.706-3.902-17.163v-3.856c0-6.709 1.208-12.625 3.625-17.75 2.416-5.126 5.879-9.084 10.388-11.874 4.51-2.79 9.643-4.185 15.399-4.185h130zm78.44 0L333.53 170h-17.4l-3.922-13.141h-22.2L286.132 170h-17.307l24.645-70.345h15.23zm60.064 0c5.954 0 11.307 1.41 16.058 4.228 4.751 2.818 8.461 6.796 11.13 11.933 2.668 5.138 4.018 10.895 4.049 17.272v3.237c0 6.442-1.303 12.216-3.91 17.32-2.607 5.106-6.279 9.1-11.014 11.983-4.736 2.882-10.02 4.34-15.85 4.372h-22.167V99.655h21.704zm-138.798 12.926h-130v.007c-7.839.15-12.027 6.198-12.57 18.145l-.018.456-.046 5.027.003.605c.064 6.408 1.156 11.358 3.275 14.85 2.185 3.602 5.433 5.403 9.742 5.403l.282-.003.28-.008h128.554c.195.007.391.011.59.011 4.094 0 7.25-1.77 9.465-5.308 2.15-3.432 3.271-8.322 3.365-14.669l.006-.6v-3.147l-.003-.613c-.066-6.494-1.18-11.45-3.345-14.866-2.231-3.523-5.425-5.285-9.58-5.29zm138.798.167h-5.46v44.207h5.645c4.659 0 8.237-1.73 10.736-5.193 2.428-3.364 3.676-8.316 3.746-14.856l.003-.58v-3.044c0-6.797-1.25-11.918-3.749-15.364-2.499-3.447-6.14-5.17-10.921-5.17zm-67.679 6.62l-7.2 24.398h14.446l-7.246-24.399zm-174.074 9.598v12.896h-22v-12.896h22zm49.1 0v12.896h-22v-12.896h22zm48.9 0v12.896h-22v-12.896h22zM30.216 112.748H19.649v19.326h10.567c3.173 0 5.561-.846 7.164-2.537 1.602-1.69 2.404-4.05 2.404-7.078 0-3.027-.81-5.403-2.428-7.126-1.618-1.723-3.998-2.585-7.14-2.585zM27.854 0c4.827 0 9.154.878 12.982 2.633 3.827 1.756 6.802 4.256 8.923 7.5 2.122 3.245 3.182 6.952 3.182 11.12h-16.14c0-2.79-.838-4.952-2.514-6.488-1.675-1.536-3.943-2.304-6.802-2.304-2.89 0-5.173.65-6.848 1.951-1.676 1.301-2.513 2.955-2.513 4.961 0 1.756.922 3.346 2.767 4.773 1.721 1.331 4.661 2.703 8.82 4.116l.91.304c4.642 1.52 8.455 3.158 11.437 4.914 7.255 4.263 10.883 10.14 10.883 17.633 0 5.987-2.213 10.69-6.64 14.106-4.428 3.417-10.5 5.126-18.216 5.126-5.442 0-10.369-.995-14.78-2.986-4.412-1.99-7.733-4.718-9.962-8.182C1.114 55.713 0 51.724 0 47.21h16.233c0 3.668.93 6.371 2.79 8.111 1.86 1.74 4.88 2.61 9.062 2.61 2.674 0 4.788-.588 6.34-1.763 1.553-1.176 2.33-2.83 2.33-4.961 0-2.414-.838-4.295-2.514-5.643-1.556-1.251-4.205-2.544-7.948-3.876l-.883-.309c-4.212-1.442-7.655-2.837-10.33-4.185C6.38 32.837 2.03 26.85 2.03 19.232c0-3.793 1.083-7.14 3.25-10.04 2.168-2.899 5.234-5.156 9.2-6.77C18.446.807 22.904 0 27.854 0zM95.98 0c8.504 0 15.34 2.185 20.506 6.555 5.167 4.37 8.103 10.393 8.81 18.068h-16.849c-.128-4.166-1.203-7.158-3.225-8.975-2.022-1.817-5.103-2.726-9.242-2.726-4.204 0-7.285 1.535-9.243 4.605-1.957 3.07-2.984 7.973-3.08 14.709v4.84c0 7.299.938 12.515 2.816 15.647 1.877 3.133 5.11 4.7 9.7 4.7 3.882 0 6.85-.893 8.905-2.679 2.053-1.786 3.144-4.62 3.273-8.505h16.8c-.225 4.761-1.54 8.967-3.948 12.617-2.406 3.65-5.784 6.476-10.132 8.481-4.349 2.005-9.315 3.008-14.899 3.008-9.21 0-16.463-2.93-21.758-8.787-5.295-5.859-7.942-14.129-7.942-24.811v-3.384c0-6.704 1.195-12.57 3.586-17.598 2.39-5.028 5.832-8.912 10.325-11.653C84.875 1.37 90.074 0 95.98 0zm59.81 0v27.925h24.99V0h16.868v70.345h-16.869V40.97H155.79v29.375h-16.965V0h16.965zm84.8 0c5.694 0 10.773 1.38 15.236 4.138 4.463 2.759 7.934 6.685 10.412 11.779 2.478 5.094 3.732 10.932 3.763 17.516v3.15c0 6.677-1.216 12.586-3.648 17.727-2.431 5.141-5.887 9.1-10.365 11.873-4.479 2.775-9.581 4.162-15.306 4.162-5.726 0-10.805-1.34-15.237-4.02-4.433-2.68-7.888-6.513-10.366-11.497-2.478-4.985-3.778-10.706-3.902-17.163v-3.856c0-6.709 1.209-12.626 3.625-17.751 2.416-5.125 5.88-9.083 10.389-11.873C229.7 1.395 234.832 0 240.588 0zm72.352 0c5.695 0 10.774 1.38 15.237 4.138 4.463 2.759 7.934 6.685 10.412 11.779 2.478 5.094 3.732 10.932 3.763 17.516v3.15c0 6.677-1.216 12.586-3.648 17.727-2.431 5.141-5.887 9.1-10.365 11.873-4.48 2.775-9.581 4.162-15.306 4.162-5.726 0-10.805-1.34-15.237-4.02-4.433-2.68-7.888-6.513-10.366-11.497-2.478-4.985-3.778-10.706-3.902-17.163v-3.856c0-6.709 1.209-12.626 3.625-17.751 2.416-5.125 5.88-9.083 10.389-11.873C302.053 1.395 307.185 0 312.94 0zm59.038 0v57.3H400v13.045h-44.118V0h16.097zM240.59 12.931c-8.127 0-12.421 6.207-12.883 18.62l-.046 5.032c0 6.709 1.093 11.865 3.278 15.47 2.186 3.605 5.433 5.408 9.743 5.408 4.094 0 7.249-1.771 9.465-5.314 2.216-3.542 3.34-8.636 3.37-15.282v-3.15c0-6.803-1.115-11.967-3.347-15.494-2.232-3.527-5.425-5.29-9.58-5.29zm72.352 0c-8.126 0-12.42 6.207-12.882 18.62l-.046 5.032c0 6.709 1.093 11.865 3.278 15.47 2.186 3.605 5.433 5.408 9.743 5.408 4.093 0 7.249-1.771 9.465-5.314 2.216-3.542 3.34-8.636 3.37-15.282v-3.15c0-6.803-1.115-11.967-3.347-15.494-2.232-3.527-5.425-5.29-9.58-5.29z"/>
</svg>
