<?xml version="1.0" encoding="UTF-8"?>
<svg width="44px" height="44px" viewBox="0 0 44 44" version="1.1" xmlns="http://www.w3.org/2000/svg" xmlns:xlink="http://www.w3.org/1999/xlink">
    <!-- Generator: sketchtool 55 (78076) - https://sketchapp.com -->
    <title>03BB0295-A675-4F1F-8230-0C132937271D</title>
    <desc>Created with sketchtool.</desc>
    <g id="Design" stroke="none" stroke-width="1" fill="none" fill-rule="evenodd">
        <g id="상세_01" transform="translate(-415.000000, -335.000000)" fill="#005CEF">
            <g id="02" transform="translate(30.000000, 305.000000)">
                <g id="2" transform="translate(360.000000, 0.000000)">
                    <g id="Group-6" transform="translate(25.000000, 30.000000)">
                        <path d="M27.1658728,44 C29.1516086,42.3918716 30.7737739,40.3570919 31.890934,38.0362513 C32.4354793,38.3652163 33.0617769,38.5524756 33.7281189,38.5524756 C35.827515,38.5524756 37.5294118,36.6936535 37.5294118,34.4006802 C37.5294118,32.107707 35.827515,30.2488849 33.7281189,30.2488849 C33.6799808,30.2488849 33.6320517,30.2498621 33.5843472,30.2517996 C33.4863184,24.9382609 30.97927,20.2098514 27.1031177,17.1002787 C27.7337253,15.4237642 28.0484316,14.2340115 28.0472366,13.5310205 C28.0447722,12.0813394 27.0722033,10.5906071 25.1295297,9.05882353 C24.9379466,10.2894768 24.1905683,11.2263614 22.887395,11.8694772 C21.7109071,12.4500738 19.0560188,13.2201408 17.4522587,13.3142636 C17.0309748,13.2839358 16.6055352,13.2685082 16.1764706,13.2685082 C8.84002494,13.2685082 2.56339443,17.7790281 -6.39044373e-13,24.1624871 L3.63620245e-12,11 C3.63545846e-12,4.92486775 4.92486775,-6.6037315e-16 11,-1.77635684e-15 L33,-1.77635684e-15 C39.0751322,-2.89234053e-15 44,4.92486775 44,11 L44,33 C44,39.0751322 39.0751322,44 33,44 L27.1658728,44 Z M8.87376471,34.8845411 C7.34068722,34.8845411 6.09788235,33.6484114 6.09788235,32.123568 C6.09788235,30.5987247 7.34068722,29.3625949 8.87376471,29.3625949 C10.4068422,29.3625949 11.6496471,30.5987247 11.6496471,32.123568 C11.6496471,33.6484114 10.4068422,34.8845411 8.87376471,34.8845411 Z M23.4791765,34.8845411 C21.946099,34.8845411 20.7032941,33.6484114 20.7032941,32.123568 C20.7032941,30.5987247 21.946099,29.3625949 23.4791765,29.3625949 C25.012254,29.3625949 26.2550588,30.5987247 26.2550588,32.123568 C26.2550588,33.6484114 25.012254,34.8845411 23.4791765,34.8845411 Z" id="Combined-Shape-Copy-3"></path>
                    </g>
                </g>
            </g>
        </g>
    </g>
</svg>